<svg width="256" height="256" xmlns="http://www.w3.org/2000/svg" xml:space="preserve" version="1.1">

 <g>
  <title>Layer 1</title>
  <g id="svg_1" fill-rule=" nonzero" fill=" none" stroke-miterlimit="10" stroke-linejoin=" miter" stroke-linecap=" butt" stroke-dasharray=" none" stroke-width="0" stroke=" none" transform="translate(1.4065934065934016 1.4065934065934016) scale(2.81 2.81)">
   <path id="svg_2" fill-rule=" nonzero" fill=" rgb(0,0,0)" stroke-miterlimit="10" stroke-linejoin=" miter" stroke-dasharray=" none" stroke=" none" stroke-linecap=" butt" d="m87.424,13.729l-42.185,0l-0.478,0l-42.185,0c-1.423,0 -2.576,1.154 -2.576,2.576l0,57.39c0,1.422 1.153,2.576 2.576,2.576l42.185,0l0.478,0l42.185,0c1.422,0 2.576,-1.153 2.576,-2.576l0,-57.39c0,-1.422 -1.153,-2.576 -2.576,-2.576zm-73.793,55.259c0,0.733 -0.594,1.328 -1.328,1.328l-5.975,0c-0.733,0 -1.328,-0.595 -1.328,-1.328l0,-5.976c0,-0.733 0.595,-1.328 1.328,-1.328l5.976,0c0.733,0 1.328,0.594 1.328,1.328l0,5.976l-0.001,0zm0,-14c0,0.733 -0.594,1.328 -1.328,1.328l-5.975,0c-0.733,0 -1.328,-0.595 -1.328,-1.328l0,-5.976c0,-0.733 0.595,-1.328 1.328,-1.328l5.976,0c0.733,0 1.328,0.594 1.328,1.328l0,5.976l-0.001,0zm0,-14c0,0.733 -0.594,1.328 -1.328,1.328l-5.975,0c-0.733,0 -1.328,-0.595 -1.328,-1.328l0,-5.976c0,-0.733 0.595,-1.328 1.328,-1.328l5.976,0c0.733,0 1.328,0.594 1.328,1.328l0,5.976l-0.001,0zm0,-14c0,0.733 -0.594,1.328 -1.328,1.328l-5.975,0c-0.733,0 -1.328,-0.595 -1.328,-1.328l0,-5.976c0,-0.733 0.595,-1.328 1.328,-1.328l5.976,0c0.733,0 1.328,0.594 1.328,1.328l0,5.976l-0.001,0zm42.656,19.393l-20.683,11.941c-1.063,0.614 -2.392,-0.153 -2.392,-1.381l0,-23.882c0,-1.228 1.329,-1.995 2.392,-1.381l20.683,11.941c1.063,0.614 1.063,2.148 0,2.762zm28.713,22.607c0,0.733 -0.595,1.328 -1.328,1.328l-5.976,0c-0.733,0 -1.328,-0.595 -1.328,-1.328l0,-5.976c0,-0.733 0.594,-1.328 1.328,-1.328l5.976,0c0.733,0 1.328,0.594 1.328,1.328l0,5.976zm0,-14c0,0.733 -0.595,1.328 -1.328,1.328l-5.976,0c-0.733,0 -1.328,-0.595 -1.328,-1.328l0,-5.976c0,-0.733 0.594,-1.328 1.328,-1.328l5.976,0c0.733,0 1.328,0.594 1.328,1.328l0,5.976zm0,-14c0,0.733 -0.595,1.328 -1.328,1.328l-5.976,0c-0.733,0 -1.328,-0.595 -1.328,-1.328l0,-5.976c0,-0.733 0.594,-1.328 1.328,-1.328l5.976,0c0.733,0 1.328,0.594 1.328,1.328l0,5.976zm0,-14c0,0.733 -0.595,1.328 -1.328,1.328l-5.976,0c-0.733,0 -1.328,-0.595 -1.328,-1.328l0,-5.976c0,-0.733 0.594,-1.328 1.328,-1.328l5.976,0c0.733,0 1.328,0.594 1.328,1.328l0,5.976z"/>
  </g>
  <g stroke=" none" id="svg_4" fill-rule=" nonzero" fill=" none" stroke-miterlimit="10" stroke-linejoin=" miter" stroke-linecap=" butt" stroke-dasharray=" none" stroke-width="0" transform="translate(1.40659 1.40659) scale(2.81 2.81)">
   <path stroke=" none" id="svg_3" fill-rule=" nonzero" fill=" rgb(3,144,213)" stroke-miterlimit="10" stroke-linejoin=" miter" stroke-dasharray=" none" stroke-linecap=" butt" d="m69.94128,42.76512c-9.11277,0 -16.5,7.38723 -16.5,16.5c0,9.11277 7.38723,16.5 16.5,16.5s16.5,-7.38723 16.5,-16.5c0,-9.11277 -7.38723,-16.5 -16.5,-16.5zm6.5362,19.085l-5.57187,4.86237c-0.0242,0.02127 -0.0517,0.0363 -0.07737,0.05573c-0.03447,0.0264 -0.0682,0.0528 -0.10487,0.0759c-0.04327,0.0275 -0.08837,0.05023 -0.13383,0.0726c-0.0363,0.01797 -0.0715,0.03703 -0.10927,0.05207c-0.0528,0.0209 -0.10707,0.03557 -0.16133,0.05023c-0.0341,0.00917 -0.06637,0.0209 -0.10157,0.0275c-0.0913,0.0176 -0.1837,0.02787 -0.27647,0.02787c-0.09277,0 -0.18517,-0.01027 -0.27647,-0.02787c-0.03483,-0.0066 -0.0671,-0.01833 -0.1012,-0.0275c-0.05463,-0.01467 -0.10853,-0.02933 -0.1617,-0.05023c-0.03777,-0.01503 -0.07297,-0.0341 -0.10927,-0.05207c-0.04547,-0.02237 -0.0902,-0.0451 -0.13347,-0.0726c-0.03667,-0.02347 -0.07077,-0.0495 -0.10523,-0.0759c-0.0253,-0.01943 -0.0528,-0.03447 -0.077,-0.05573l-5.5715,-4.86237c-0.6105,-0.5324 -0.6732,-1.45897 -0.1408,-2.06947c0.53277,-0.6105 1.45897,-0.6732 2.06947,-0.1408l3.14087,2.7412l0,-9.4578c0,-0.80997 0.6567,-1.46667 1.46667,-1.46667s1.46667,0.6567 1.46667,1.46667l0,9.4578l3.14087,-2.74083c0.61013,-0.53277 1.53633,-0.46933 2.06947,0.1408s0.4697,1.5367 -0.1408,2.0691z"/>
  </g>
 </g>
</svg>